<svg width="1111" height="922" viewBox="0 0 1111 922" fill="none" xmlns="http://www.w3.org/2000/svg">
<path d="M1084.28 336.51L1071.16 392.16C1035.95 382.967 959.702 363.444 936.375 358.902C907.215 353.224 899.284 337.027 884.048 332.14C873.1 342.806 848.377 365.75 837.065 372.204C822.926 380.27 772.61 419.265 792.839 474.063C813.068 528.861 885.185 529.94 911.982 536.435C938.778 542.931 980.559 560.009 981.186 615.345C981.814 670.681 961.655 705.697 973.953 716.468C972.195 714.854 967.64 711.923 963.479 713.108M963.479 713.108C958.277 714.59 962.913 705.05 959.832 698.286C956.751 691.522 949.968 693.022 951.765 684.146C953.562 675.271 885.676 670.823 852.016 672.628C818.356 674.433 749.801 678.117 722.003 683.432C704.131 686.85 711.079 696.206 714.313 702.494C716.547 706.839 717.088 710.211 705.518 721.727C693.948 733.243 696.166 747.607 720.043 761.568C743.92 775.528 799.921 777.739 799.921 777.739C799.921 777.739 819.37 749.847 862.094 752.524C897.611 754.751 952.676 754.776 957.944 754.916C970.44 755.249 956.853 724.636 963.479 713.108Z" stroke="black" stroke-width="2"/>
<path d="M1067.6 329.583L1082.84 334.471L1097.96 287.336L899.735 237.404L878.659 303.106C875.503 312.946 864.208 331.132 844.28 325.159C819.37 317.694 748.206 289.09 717.16 284.382C686.114 279.674 513.988 285.896 431.603 313.554C349.218 341.211 123.082 437.227 101.137 440.165C79.1906 443.102 62.2666 428.746 69.8397 413.322C77.4128 397.898 97.357 404.296 107.704 419.692C118.05 435.088 145.44 498.484 161.78 531.03C178.12 563.577 227.777 647.768 228.711 674.322C229.458 695.566 232.208 703.799 233.489 705.26C244.583 702.868 267.774 697.25 271.785 693.915C276.797 689.747 287.532 674.288 302.373 672.222C313.366 670.691 323.379 666.829 330.556 667.085M330.556 667.085C333.066 667.174 335.23 667.767 336.967 669.141C343.668 674.441 347.073 681.835 355.589 679.84C364.105 677.846 368.435 669.259 365.677 663.123C362.919 656.987 357.629 650.564 347.226 653.529C336.823 656.493 337.341 666.449 330.556 667.085Z" stroke="black" stroke-width="2"/>
<path d="M364.536 660.132L419.522 659.917M419.522 659.917L420.205 664.336L411.392 664.66M419.522 659.917L419.298 654.069L426.727 653.826L427.751 660.456L422.855 660.986L422.496 657.195L435.018 656.486L434.937 652.784L441.262 652.712" stroke="black" stroke-width="2"/>
</svg>
