<svg width="293" height="108" viewBox="0 0 293 108" fill="none" xmlns="http://www.w3.org/2000/svg">
<path d="M60.2591 41.602L60.4151 36.35H60.1811L56.6711 45.684L53.1611 36.35H52.9271L53.0831 41.602V50H50.1191V31.852H54.1751L56.6971 38.534H56.8791L59.4271 31.852H63.2231V50H60.2591V41.602ZM74.7829 47.634H74.6529C74.3583 48.362 73.8989 48.9947 73.2749 49.532C72.6683 50.052 71.8189 50.312 70.7269 50.312C69.4096 50.312 68.3349 49.8787 67.5029 49.012C66.6883 48.128 66.2809 46.8713 66.2809 45.242V36.584H69.6089V44.774C69.6089 46.7153 70.4496 47.686 72.1309 47.686C72.4603 47.686 72.7809 47.6427 73.0929 47.556C73.4223 47.4693 73.7083 47.3393 73.9509 47.166C74.2109 46.9753 74.4103 46.75 74.5489 46.49C74.7049 46.23 74.7829 45.918 74.7829 45.554V36.584H78.1109V50H74.7829V47.634ZM87.7988 50.312C86.3254 50.312 85.0514 50.0867 83.9768 49.636C82.9021 49.168 82.0614 48.544 81.4548 47.764L83.4048 45.996C83.9594 46.6027 84.5921 47.0707 85.3028 47.4C86.0308 47.7293 86.8714 47.894 87.8248 47.894C88.6568 47.894 89.3241 47.7553 89.8268 47.478C90.3294 47.2007 90.5808 46.776 90.5808 46.204C90.5808 45.7187 90.4074 45.3893 90.0608 45.216C89.7314 45.0427 89.2894 44.9127 88.7348 44.826L86.5768 44.488C86.0221 44.4013 85.4761 44.28 84.9388 44.124C84.4188 43.9507 83.9508 43.7167 83.5348 43.422C83.1361 43.1273 82.8154 42.7547 82.5728 42.304C82.3301 41.836 82.2088 41.2727 82.2088 40.614C82.2088 39.21 82.7288 38.1353 83.7688 37.39C84.8261 36.6447 86.2734 36.272 88.1108 36.272C89.4108 36.272 90.5114 36.454 91.4128 36.818C92.3314 37.182 93.0854 37.6933 93.6748 38.352L91.9328 40.276C91.5514 39.86 91.0401 39.496 90.3988 39.184C89.7748 38.8547 88.9774 38.69 88.0068 38.69C86.3081 38.69 85.4588 39.2187 85.4588 40.276C85.4588 40.7613 85.6321 41.0993 85.9788 41.29C86.3254 41.4633 86.7761 41.5933 87.3308 41.68L89.4628 42.018C90.0348 42.1047 90.5808 42.2347 91.1008 42.408C91.6381 42.564 92.1061 42.7893 92.5048 43.084C92.9208 43.3787 93.2501 43.7513 93.4928 44.202C93.7354 44.6527 93.8568 45.2073 93.8568 45.866C93.8568 47.2527 93.3194 48.3447 92.2448 49.142C91.1874 49.922 89.7054 50.312 87.7988 50.312ZM103.753 50.312C102.678 50.312 101.725 50.1473 100.893 49.818C100.061 49.4887 99.3586 49.0207 98.7866 48.414C98.232 47.8073 97.8073 47.0793 97.5126 46.23C97.218 45.3633 97.0706 44.3927 97.0706 43.318C97.0706 42.226 97.218 41.2467 97.5126 40.38C97.8246 39.5133 98.258 38.7767 98.8126 38.17C99.3673 37.5633 100.035 37.0953 100.815 36.766C101.612 36.4367 102.505 36.272 103.493 36.272C104.463 36.272 105.339 36.4367 106.119 36.766C106.899 37.078 107.557 37.5287 108.095 38.118C108.649 38.7073 109.074 39.418 109.369 40.25C109.663 41.082 109.811 42.0007 109.811 43.006V44.098H100.399V44.436C100.399 45.4067 100.702 46.1953 101.309 46.802C101.915 47.3913 102.765 47.686 103.857 47.686C104.689 47.686 105.399 47.5213 105.989 47.192C106.595 46.8453 107.098 46.3947 107.497 45.84L109.395 47.738C108.909 48.4487 108.199 49.0553 107.263 49.558C106.344 50.0607 105.174 50.312 103.753 50.312ZM103.519 38.716C102.583 38.716 101.829 39.0107 101.257 39.6C100.685 40.1893 100.399 40.9693 100.399 41.94V42.122H106.483V41.888C106.483 40.9173 106.214 40.146 105.677 39.574C105.157 39.002 104.437 38.716 103.519 38.716ZM121.552 47.634H121.422C121.128 48.362 120.668 48.9947 120.044 49.532C119.438 50.052 118.588 50.312 117.496 50.312C116.179 50.312 115.104 49.8787 114.272 49.012C113.458 48.128 113.05 46.8713 113.05 45.242V36.584H116.378V44.774C116.378 46.7153 117.219 47.686 118.9 47.686C119.23 47.686 119.55 47.6427 119.862 47.556C120.192 47.4693 120.478 47.3393 120.72 47.166C120.98 46.9753 121.18 46.75 121.318 46.49C121.474 46.23 121.552 45.918 121.552 45.554V36.584H124.88V50H121.552V47.634ZM127.782 50V36.584H130.538V38.43H130.694C130.902 37.8407 131.197 37.338 131.578 36.922C131.977 36.4887 132.532 36.272 133.242 36.272C133.918 36.272 134.456 36.4713 134.854 36.87C135.253 37.2513 135.513 37.7973 135.634 38.508H135.764C135.99 37.9013 136.319 37.3813 136.752 36.948C137.203 36.4973 137.836 36.272 138.65 36.272C139.638 36.272 140.349 36.6273 140.782 37.338C141.216 38.0487 141.432 39.0973 141.432 40.484V50H138.702V40.874C138.702 40.094 138.59 39.548 138.364 39.236C138.156 38.924 137.836 38.768 137.402 38.768C137.004 38.768 136.666 38.898 136.388 39.158C136.128 39.418 135.998 39.8167 135.998 40.354V50H133.242V40.874C133.242 40.094 133.138 39.548 132.93 39.236C132.722 38.924 132.402 38.768 131.968 38.768C131.552 38.768 131.206 38.898 130.928 39.158C130.668 39.418 130.538 39.8167 130.538 40.354V50H127.782ZM119.03 84.312C118.008 84.312 117.089 84.1473 116.274 83.818C115.477 83.4887 114.792 83.0207 114.22 82.414C113.666 81.8073 113.232 81.0707 112.92 80.204C112.626 79.3373 112.478 78.3667 112.478 77.292C112.478 76.2173 112.626 75.2467 112.92 74.38C113.232 73.5133 113.666 72.7767 114.22 72.17C114.792 71.5633 115.477 71.0953 116.274 70.766C117.089 70.4367 118.008 70.272 119.03 70.272C120.036 70.272 120.946 70.4367 121.76 70.766C122.575 71.0953 123.26 71.5633 123.814 72.17C124.386 72.7767 124.82 73.5133 125.114 74.38C125.426 75.2467 125.582 76.2173 125.582 77.292C125.582 78.3667 125.426 79.3373 125.114 80.204C124.82 81.0707 124.386 81.8073 123.814 82.414C123.26 83.0207 122.575 83.4887 121.76 83.818C120.946 84.1473 120.036 84.312 119.03 84.312ZM119.03 81.764C119.984 81.764 120.738 81.478 121.292 80.906C121.847 80.3167 122.124 79.4587 122.124 78.332V76.252C122.124 75.1253 121.847 74.276 121.292 73.704C120.738 73.1147 119.984 72.82 119.03 72.82C118.077 72.82 117.323 73.1147 116.768 73.704C116.214 74.276 115.936 75.1253 115.936 76.252V78.332C115.936 79.4587 116.214 80.3167 116.768 80.906C117.323 81.478 118.077 81.764 119.03 81.764ZM128.77 81.374H132.878V73.21H128.51V70.584H132.878V68.4C132.878 67.8627 132.948 67.3773 133.086 66.944C133.242 66.4933 133.476 66.112 133.788 65.8C134.1 65.4707 134.49 65.2193 134.958 65.046C135.444 64.8553 136.007 64.76 136.648 64.76H141.172V67.386H136.206V70.584H141.172V73.21H136.206V81.374H140.574V84H128.77V81.374Z" fill="black"/>
<path d="M201.717 46.986H201.468L197.235 55.452L185.947 75.953L174.908 55.535L170.509 46.405H170.26V85H158.391V27.066H171.754L185.947 54.207H186.113L200.14 27.066H213.586V85H201.717V46.986ZM226.396 85V27.066H265.821V38.271H239.012V50.14H262.003V61.262H239.012V73.795H265.821V85H226.396Z" fill="black"/>
</svg>
